<svg width="16" height="17" viewBox="0 0 16 17" fill="none" xmlns="http://www.w3.org/2000/svg">
<path d="M9.66667 10.6693V16.5027H12.1667C14.0088 16.5027 15.5 15.0114 15.5 13.1693V8.37401C15.5 7.4822 15.1491 6.63424 14.5205 6.02021L10.3538 1.85354C9.05263 0.537752 6.94737 0.537752 5.6462 1.85354L1.47953 6.02021C0.850877 6.63424 0.5 7.4822 0.5 8.37401V13.1693C0.5 15.0114 1.99123 16.5027 3.83333 16.5027H6.33333V10.6693C6.33333 9.63132 6.96199 9.00266 8 9.00266C9.03801 9.00266 9.66667 9.63132 9.66667 10.6693ZM10.5 14.836H5.5V16.5027H10.5V14.836Z" fill="#374151"/>
</svg>
