<svg width="16" height="18" viewBox="0 0 16 18" fill="none" xmlns="http://www.w3.org/2000/svg">
<path d="M12.1667 2.50016H3.83333C1.96199 2.50016 0.5 3.96215 0.5 5.8335V7.50016H15.5V5.8335C15.5 3.96215 14.038 2.50016 12.1667 2.50016ZM2.16667 7.50016H13.8333V14.1668C13.8333 15.2195 13.2193 15.8335 12.1667 15.8335H3.83333C2.7807 15.8335 2.16667 15.2195 2.16667 14.1668V7.50016ZM0.5 5.8335V14.1668C0.5 16.0382 1.96199 17.5002 3.83333 17.5002H12.1667C14.038 17.5002 15.5 16.0382 15.5 14.1668V5.8335H0.5ZM3 1.66683V3.3335C3 3.78671 3.38012 4.16683 3.83333 4.16683C4.28655 4.16683 4.66667 3.78671 4.66667 3.3335V1.66683C4.66667 1.21361 4.28655 0.833496 3.83333 0.833496C3.38012 0.833496 3 1.21361 3 1.66683ZM13 3.3335V1.66683C13 1.21361 12.6199 0.833496 12.1667 0.833496C11.7135 0.833496 11.3333 1.21361 11.3333 1.66683V3.3335C11.3333 3.78671 11.7135 4.16683 12.1667 4.16683C12.6199 4.16683 13 3.78671 13 3.3335ZM4.66667 12.2224C4.05263 12.2224 3.55556 12.7195 3.55556 13.3335C3.55556 13.9475 4.05263 14.4446 4.66667 14.4446C5.2807 14.4446 5.77778 13.9475 5.77778 13.3335C5.77778 12.7195 5.2807 12.2224 4.66667 12.2224ZM8 12.2224C7.38596 12.2224 6.88889 12.7195 6.88889 13.3335C6.88889 13.9475 7.38596 14.4446 8 14.4446C8.61403 14.4446 9.11111 13.9475 9.11111 13.3335C9.11111 12.7195 8.61403 12.2224 8 12.2224ZM11.3333 12.2224C10.7193 12.2224 10.2222 12.7195 10.2222 13.3335C10.2222 13.9475 10.7193 14.4446 11.3333 14.4446C11.9474 14.4446 12.4444 13.9475 12.4444 13.3335C12.4444 12.7195 11.9474 12.2224 11.3333 12.2224ZM4.66667 8.88905C4.05263 8.88905 3.55556 9.38613 3.55556 10.0002C3.55556 10.6142 4.05263 11.1113 4.66667 11.1113C5.2807 11.1113 5.77778 10.6142 5.77778 10.0002C5.77778 9.38613 5.2807 8.88905 4.66667 8.88905ZM8 8.88905C7.38596 8.88905 6.88889 9.38613 6.88889 10.0002C6.88889 10.6142 7.38596 11.1113 8 11.1113C8.61403 11.1113 9.11111 10.6142 9.11111 10.0002C9.11111 9.38613 8.61403 8.88905 8 8.88905ZM11.3333 8.88905C10.7193 8.88905 10.2222 9.38613 10.2222 10.0002C10.2222 10.6142 10.7193 11.1113 11.3333 11.1113C11.9474 11.1113 12.4444 10.6142 12.4444 10.0002C12.4444 9.38613 11.9474 8.88905 11.3333 8.88905Z" fill="#374151"/>
</svg>
