<svg width="18" height="18" viewBox="0 0 18 18" fill="none" xmlns="http://www.w3.org/2000/svg">
<path d="M12.492 0.666504H5.50866C2.47533 0.666504 0.666992 2.47484 0.666992 5.50817V12.4832C0.666992 15.5248 2.47533 17.3332 5.50866 17.3332H12.4837C15.517 17.3332 17.3253 15.5248 17.3253 12.4915V5.50817C17.3337 2.47484 15.5253 0.666504 12.492 0.666504ZM14.4253 9.9915C14.4253 10.4915 14.042 10.7415 13.5837 10.5415L10.792 9.3415C10.467 9.20817 10.2087 9.37484 10.2087 9.72484V11.2665C10.2087 11.3998 10.2837 11.5915 10.3837 11.6915L11.7503 13.0665C11.892 13.2082 11.9587 13.4915 11.892 13.6832L11.6253 14.4832C11.5087 14.8332 11.1087 14.9998 10.7837 14.8332L9.39199 13.6498C9.17533 13.4748 8.82533 13.4748 8.61699 13.6498L7.21699 14.8332C6.88366 14.9998 6.49199 14.8332 6.37533 14.4748L6.10866 13.6748C6.04199 13.4832 6.10866 13.1998 6.25033 13.0582L7.64199 11.6915C7.73366 11.5998 7.81699 11.4082 7.81699 11.2665V9.72484C7.81699 9.37484 7.55033 9.19984 7.23366 9.3415L4.44199 10.5415C3.97533 10.7415 3.60033 10.4915 3.60033 9.9915V9.2165C3.60033 8.8165 3.90866 8.34984 4.27533 8.1915L7.55866 6.77484C7.69199 6.7165 7.80866 6.5415 7.80866 6.3915V4.6665C7.80866 4.09984 8.21699 3.42484 8.72533 3.17484C8.90866 3.08317 9.11699 3.08317 9.30033 3.17484C9.80033 3.43317 10.217 4.09984 10.217 4.6665V6.3915C10.217 6.5415 10.3253 6.7165 10.467 6.77484L13.7503 8.1915C14.1253 8.34984 14.4253 8.8165 14.4253 9.2165V9.9915Z" fill="#374151"/>
</svg>
