<?xml version="1.0" standalone="no"?>
<!DOCTYPE svg PUBLIC "-//W3C//DTD SVG 20010904//EN"
 "http://www.w3.org/TR/2001/REC-SVG-20010904/DTD/svg10.dtd">
<svg version="1.0" xmlns="http://www.w3.org/2000/svg"
 width="16px" height="16px" viewBox="0 0 512.000000 512.000000"
 preserveAspectRatio="xMidYMid meet">

<g transform="translate(0.000000,512.000000) scale(0.100000,-0.100000)"
fill="currentColor" stroke="none">
<path d="M1428 4287 c-619 -458 -1194 -882 -1277 -943 l-152 -112 87 -116 c47
-64 91 -116 96 -116 6 0 35 18 64 40 29 22 56 40 59 40 3 0 5 -693 5 -1540 l0
-1540 2250 0 2250 0 0 1540 c0 847 2 1540 5 1540 3 0 30 -18 60 -40 30 -22 58
-40 64 -40 5 0 48 52 95 116 l86 116 -62 47 c-35 26 -172 127 -305 225 l-243
178 0 559 0 559 -450 0 -450 0 -2 -225 -3 -225 -522 385 c-287 212 -524 385
-525 384 -2 0 -510 -375 -1130 -832z m2109 -261 l968 -713 3 -1507 2 -1506
-1950 0 -1950 0 0 1504 0 1505 682 503 c376 277 811 598 968 715 157 116 291
212 297 212 7 1 448 -320 980 -713z m673 178 c0 -163 -4 -294 -8 -292 -4 2
-72 50 -150 108 l-142 105 0 187 0 188 150 0 150 0 0 -296z"/>
<path d="M1810 3300 l0 -600 750 0 750 0 0 600 0 600 -750 0 -750 0 0 -600z
m1200 0 l0 -300 -450 0 -450 0 0 300 0 300 450 0 450 0 0 -300z"/>
<path d="M910 1800 l0 -1200 150 0 150 0 0 150 0 150 1350 0 1350 0 0 -150 0
-150 150 0 150 0 0 600 0 600 -1061 0 -1061 0 6 33 c37 172 -3 317 -118 433
-63 62 -138 105 -217 123 -24 6 -158 11 -296 11 l-253 0 0 300 0 300 -150 0
-150 0 0 -1200z m820 281 c42 -22 80 -83 80 -130 0 -50 -37 -108 -85 -131 -38
-18 -62 -20 -278 -20 l-237 0 0 150 0 150 243 0 c217 0 246 -2 277 -19z m2180
-731 l0 -150 -1350 0 -1350 0 0 150 0 150 1350 0 1350 0 0 -150z"/>
</g>
</svg>
