<?xml version="1.0" standalone="no"?>
<!DOCTYPE svg PUBLIC "-//W3C//DTD SVG 20010904//EN"
 "http://www.w3.org/TR/2001/REC-SVG-20010904/DTD/svg10.dtd">
<svg version="1.0" xmlns="http://www.w3.org/2000/svg"
 width="16px" height="16px" viewBox="0 0 512 512"
 preserveAspectRatio="xMidYMid meet">

<g transform="translate(0.000000,512.000000) scale(0.100000,-0.100000)"
fill="currentColor" stroke="none">
<path d="M4380 5106 c-79 -17 -140 -40 -201 -78 -28 -17 -231 -224 -535 -548
-389 -414 -496 -523 -524 -531 -29 -9 -69 -3 -250 35 -118 25 -366 77 -550
116 -184 39 -407 86 -495 105 -1086 232 -1393 295 -1428 295 -101 0 -213 -74
-264 -174 -38 -74 -43 -189 -12 -271 45 -120 25 -108 1033 -640 739 -390 912
-486 927 -510 19 -31 24 -79 12 -111 -6 -17 -1051 -1150 -1076 -1167 -7 -5
-122 40 -302 119 -269 118 -295 127 -365 131 -99 6 -174 -21 -246 -89 -72 -68
-98 -130 -99 -233 0 -67 4 -89 27 -135 15 -30 42 -69 60 -86 18 -17 182 -140
363 -273 182 -133 344 -255 361 -271 17 -16 138 -175 268 -354 130 -178 253
-339 273 -356 62 -55 117 -75 208 -75 60 0 91 6 126 22 143 65 224 232 185
379 -8 32 -69 181 -135 329 l-119 270 67 65 c91 89 1038 968 1079 1002 42 35
96 37 141 5 27 -18 130 -201 534 -950 360 -664 513 -939 542 -968 61 -64 125
-92 220 -97 64 -3 91 0 135 17 122 46 201 155 201 274 0 45 -83 425 -300 1382
-166 726 -301 1334 -301 1351 0 17 10 45 23 62 12 17 250 245 529 508 316 296
519 494 536 523 67 108 99 254 89 404 -19 285 -141 448 -382 513 -82 22 -273
27 -355 10z m250 -207 c171 -27 243 -102 270 -282 21 -140 -12 -286 -83 -360
-23 -25 -244 -235 -492 -467 -247 -232 -474 -447 -502 -477 -63 -67 -94 -141
-94 -227 -1 -44 82 -422 302 -1391 210 -928 300 -1339 295 -1358 -17 -69 -131
-87 -186 -31 -15 16 -251 443 -524 949 -321 594 -510 933 -533 956 -19 21 -58
50 -87 65 -47 27 -60 29 -151 29 -89 0 -106 -3 -150 -27 -33 -17 -258 -218
-650 -583 -330 -306 -612 -570 -627 -586 -47 -50 -41 -71 112 -422 94 -215
140 -333 140 -356 0 -50 -31 -97 -73 -110 -70 -23 -85 -9 -292 275 -340 466
-311 432 -458 542 -73 54 -241 178 -374 276 -218 159 -244 181 -254 215 -9 30
-8 44 2 67 17 35 73 74 107 74 13 0 175 -66 359 -146 276 -120 340 -145 367
-140 22 4 54 29 107 84 62 63 782 838 1041 1120 87 96 111 155 106 267 -4 98
-31 160 -98 224 -35 34 -240 147 -950 521 -993 525 -956 502 -947 588 5 45 28
79 64 93 15 6 413 -75 1345 -272 1469 -312 1396 -300 1511 -244 51 26 111 85
510 509 578 615 542 579 605 600 103 34 182 42 282 25z"/>
</g>
</svg>
